<svg viewBox="0 0 64 64" xmlns="http://www.w3.org/2000/svg"><path fill="#8C2B3D" d="M 0 0 L 64 0 L 64 64 L 0 64 L 0 0 Z"></path><g transform="matrix(1, 0, 0, 1, 1.303993, 0.4632)"><g transform="matrix(0.948626, 0, 0, 0.948626, 0.605111, -0.616844)"><rect style="stroke-width: 2px; stroke: rgb(255, 255, 255); fill: rgb(255, 255, 255);" x="-57.103" y="-29.354" width="50.765" height="20.593" rx="10.3" ry="10.3" transform="matrix(-1, 0, 0, -1, 0, 0)"></rect><ellipse style="stroke: rgb(255, 255, 255); stroke-opacity: 0; stroke-width: 0px; fill: rgb(140, 43, 61);" cx="-46.626" cy="-19.078" rx="6.24" ry="6.24" transform="matrix(-1, 0, 0, -1, 0, 0)"></ellipse></g><g transform="matrix(0.948626, 0, 0, 0.948626, 0.605112, 2.711814)"><rect style="fill: rgb(255, 255, 255); fill-opacity: 0; stroke: rgb(255, 255, 255); stroke-width: 2px;" x="6.338" y="34.927" width="50.765" height="20.593" rx="10.3" ry="10.3"></rect><ellipse style="stroke: rgb(255, 255, 255); fill: rgb(255, 255, 255); stroke-width: 0px;" cx="16.815" cy="45.203" rx="6.24" ry="6.24"></ellipse></g></g></svg>